<?xml version="1.0" encoding="utf-8"?>
<!-- Generator: Adobe Illustrator 27.5.0, SVG Export Plug-In . SVG Version: 6.00 Build 0)  -->
<svg version="1.1" id="Layer_1" xmlns="http://www.w3.org/2000/svg" xmlns:xlink="http://www.w3.org/1999/xlink" x="0px" y="0px"
	 viewBox="0 0 4000 4000" style="enable-background:new 0 0 4000 4000;" xml:space="preserve">
<g>
	<g>
		<g>
			<g>
				<rect style="fill:#FFCAEC;" width="4000" height="4000"/>
			</g>
		</g>
	</g>
	<g>
		<g style="opacity:0.2;">
			<g>
				<g>
					<ellipse style="fill:#390176;" cx="1870.338" cy="3617.722" rx="723.716" ry="120"/>
				</g>
			</g>
		</g>
		<g>
			<g>
				<g>
					<path style="fill:#FFC891;" d="M2145.456,3467.775l103.134,134.052c-142.758,4.199-271.827-0.654-368.969-26.552
						c0,0,2.65-54.399,12.292-107.3c4.197-23.052,9.696-45.801,16.889-63.648l-7.593-148.652l-8.647-170.098l56.664,1.548
						l306.859,8.452l-128.669,348.75L2145.456,3467.775z"/>
				</g>
			</g>
		</g>
		<g>
			<g>
				<g>
					<path style="fill:#371A45;" d="M2163.288,3615.651c-122.817,0-215.249-9.204-286.885-28.301
						c-5.693-1.519-9.551-6.802-9.263-12.683c0.107-2.256,2.803-55.833,12.476-108.931c4.692-25.764,10.264-47.095,16.567-63.472
						l-16.104-316.052c-0.176-3.479,1.108-6.875,3.54-9.368c2.437-2.49,5.684-3.862,9.282-3.757l363.525,10
						c4.028,0.11,7.749,2.153,10.01,5.486c2.256,3.335,2.764,7.554,1.372,11.331l-126.284,342.273l13.833,17.979l0,0
						l103.135,134.053c2.866,3.721,3.398,8.733,1.387,12.974c-2.012,4.243-6.23,7-10.923,7.136
						C2218.859,3615.204,2190.334,3615.651,2163.288,3615.651z M1892.731,3565.739c79.653,19.648,185.723,27.439,330.967,24.229
						l-106.187-138.02c-2.622-3.403-3.311-7.915-1.821-11.946l122.646-332.412l-332.612-9.15l15.557,305.251
						c0.093,1.814-0.21,3.625-0.889,5.308c-6.099,15.127-11.543,35.725-16.187,61.216
						C1897.258,3508.329,1893.977,3547.692,1892.731,3565.739z"/>
				</g>
			</g>
		</g>
		<g>
			<g>
				<g>
					<path style="fill:#EF4291;" d="M2248.59,3601.826c-142.762,4.199-271.832-0.649-368.969-26.548c0,0,2.645-54.404,12.292-107.3
						c0,0,171.641,61.147,253.538-0.2L2248.59,3601.826z"/>
				</g>
			</g>
		</g>
		<g>
			<g>
				<g>
					<path style="fill:#371A45;" d="M2163.269,3615.648c-122.822,0-215.239-9.202-286.865-28.296
						c-5.693-1.519-9.551-6.802-9.263-12.683c0.107-2.253,2.798-55.837,12.476-108.933c0.659-3.606,2.866-6.741,6.04-8.574
						s6.997-2.185,10.444-0.957c1.655,0.591,166.309,58.164,241.86,1.57c5.479-4.097,13.232-3.037,17.393,2.383l103.14,134.048
						c2.866,3.721,3.398,8.733,1.387,12.974c-2.012,4.243-6.23,7-10.923,7.136
						C2218.859,3615.202,2190.319,3615.648,2163.269,3615.648z M1892.727,3565.739c79.634,19.648,185.688,27.422,330.972,24.226
						l-81.025-105.303c-74.707,44.729-198.955,12.576-240.879-0.313C1896.472,3517.748,1893.815,3549.931,1892.727,3565.739z"/>
				</g>
			</g>
		</g>
		<g style="opacity:0.3;">
			<g>
				<g>
					<path style="fill:#371A45;" d="M2059.604,3594.395c-61.239-7.034-104.325-64.124-93.425-124.832
						c0.095-0.529,0.191-1.059,0.287-1.587c4.197-23.052,9.696-45.801,16.889-63.648l-7.593-148.652l-8.542-168.054l-17.994-0.496
						l-56.664-1.548l8.647,170.098l7.593,148.652c-7.193,17.847-12.692,40.596-16.889,63.648c-9.642,52.9-12.292,107.3-12.292,107.3
						c86.367,23.026,198.004,29.395,322.025,27.579C2151.252,3602.045,2103.57,3599.445,2059.604,3594.395z"/>
				</g>
			</g>
		</g>
		<g>
			<g>
				<g>
					<path style="fill:#FFC891;" d="M1954.174,3069.723l-4.948,17.403l-48.017,168.55l-45.274,159.048v171.704
						c0,0-253.191,128.296-321.498-21.704l59.914-126.997l25.033-53.003l-56.615-365L1954.174,3069.723z"/>
				</g>
			</g>
		</g>
		<g>
			<g>
				<g>
					<path style="fill:#371A45;" d="M1663.747,3650.038c-22.271,0.002-44.141-2.856-64.248-9.907
						c-35.103-12.307-60.82-35.938-76.436-70.229c-1.523-3.342-1.499-7.188,0.068-10.51l83.315-176.541l-56.025-361.213
						c-0.601-3.879,0.654-7.817,3.394-10.63c2.739-2.815,6.655-4.182,10.537-3.679l391.401,50c3.613,0.461,6.841,2.473,8.848,5.51
						c2.007,3.04,2.588,6.799,1.592,10.3l-97.764,343.328v169.961c0,4.709-2.646,9.019-6.846,11.147
						C1856.418,3600.192,1756.721,3650.033,1663.747,3650.038z M1548.278,3564.669c12.925,25.381,32.427,42.378,59.453,51.865
						c82.358,28.909,205.518-23.962,235.708-37.981v-163.831c0-1.157,0.161-2.307,0.479-3.42l94.263-331.025l-360.518-46.055
						l54.067,348.586c0.381,2.466,0.015,4.993-1.05,7.251L1548.278,3564.669z"/>
				</g>
			</g>
		</g>
		<g>
			<g>
				<g>
					<path style="fill:#595577;" d="M1515.298,2718.076c0,0,3.748,145,39.975,333.75c0,0,72.455,143.75,704.56,81.25
						c0,0,109.931-252.5,69.956-415C2289.814,2555.576,1670.201,2390.576,1515.298,2718.076z"/>
				</g>
			</g>
		</g>
		<g style="opacity:0.3;">
			<g>
				<g>
					<path style="fill:#371A45;" d="M1725.24,2839.121c0,0,14.991,166.1,384.76,193.6c0,0-228.307,61.5-363.972-13
						c0,0,25.682,69.2,105.535,125.15c-258.54-18.2-296.265-93.05-296.265-93.05c-36.227-188.75-39.975-333.75-39.975-333.75
						c154.903-327.5,774.516-162.5,814.491,0c9.943,40.5,10.592,86.55,5.995,132.9c-100.137-20.6-237.5-70.45-347.483-190.75
						C1988.325,2660.222,1895.134,2805.471,1725.24,2839.121z"/>
				</g>
			</g>
		</g>
		<g>
			<g>
				<g>
					<path style="fill:#371A45;" d="M1973.503,3161.212c-371.982,0-426.821-98.677-429.385-103.762
						c-0.522-1.033-0.898-2.134-1.113-3.269c-36.011-187.588-40.161-334.324-40.195-335.784c-0.054-1.956,0.356-3.896,1.196-5.664
						c96.782-204.624,348.247-202.454,451.88-192.029c191.23,19.246,364.404,106.448,386.035,194.385
						c40.518,164.707-66.074,412.505-70.635,422.974c-1.807,4.153-5.718,7.002-10.225,7.449
						C2148.723,3156.618,2053.708,3161.212,1973.503,3161.212z M1567.111,3047.204c8.848,12.195,110.2,129.812,684.072,74.163
						c16.763-40.857,101.401-258.298,66.47-400.305c-18.979-77.163-185.796-157.527-364.268-175.491
						c-97.881-9.836-334.546-12.361-425.493,175.146C1528.669,2742.191,1534.704,2877.44,1567.111,3047.204z"/>
				</g>
			</g>
		</g>
		<g>
			<g>
				<g>
					<path style="fill:#FFC891;" d="M2185.58,1919.326l-95.441,165.7l-117.627,204.3l-131.917-228.55l-104.034-180.15
						C1887.217,1889.776,2091.937,1909.825,2185.58,1919.326z"/>
				</g>
			</g>
		</g>
		<g style="opacity:0.3;">
			<g>
				<g>
					<path style="fill:#371A45;" d="M2184.494,1902.136l-95.441,165.7l-117.627,204.3l-131.917-228.55l-104.034-180.15
						C1886.13,1872.586,2090.851,1892.636,2184.494,1902.136z"/>
				</g>
			</g>
		</g>
		<g>
			<g>
				<g>
					<path style="fill:#FFC891;" d="M2747.128,2044.326c-2.398-7.05-6.095-12.25-10.543-15.9c3.099-12.45,8.744-46.1-16.44-56
						c0-32.8-19.387-46.15-41.424-47.7l26.934-61.35c2.847-6.4,4.248-13.25,4.248-20.15c0-5-0.751-10.05-2.25-14.9
						c-4.748-15.05-23.635-19.95-35.027-9l-130.968,125.4l-26.336-46.65c-4.545-8.05-12.741-12.25-21.037-12.25
						c-6.744,0-13.49,2.75-18.387,8.45c-7.896,9.2-10.943,21.6-8.296,33.45l30.73,137c-7.795,7.1-15.188,14.35-22.135,21.7
						c-12.443,12.9-23.535,26.05-33.429,38.7c0,0,22.286,128.45,193.829,100.3c9.442-44.5,15.588-79.25,15.588-79.25
						S2764.617,2095.576,2747.128,2044.326z"/>
				</g>
			</g>
		</g>
		<g style="opacity:0.3;">
			<g>
				<g>
					<path style="fill:#390176;" d="M2645.065,2184.322c-2.349,11.9-5.197,25.95-8.444,41.1
						c-171.543,28.15-193.829-100.3-193.829-100.3c9.894-12.65,20.986-25.8,33.429-38.7c5.397-5.75,11.092-11.4,17.04-16.95
						C2490.562,2096.971,2484.765,2232.622,2645.065,2184.322z"/>
				</g>
			</g>
		</g>
		<g style="opacity:0.6;">
			<g>
				<g>
					<g>
						<path style="fill:#FFFFFF;" d="M2701.412,2017.721c4.248-0.599,8.571-0.935,12.944-0.935c8.406,0,16.293,2.131,23.511,5.687
							c2.769-14.985,4.14-41.455-17.721-50.048c0-32.8-19.387-46.15-41.424-47.7l6.207-14.139l-58.825,28.427
							C2647.988,1940.552,2702.588,1971.671,2701.412,2017.721z"/>
					</g>
				</g>
			</g>
			<g>
				<g>
					<g>
						<path style="fill:#FFFFFF;" d="M2468.818,1933.143c2.206-0.634,4.453-1.068,6.729-1.068c8.296,0,16.491,4.2,21.037,12.25
							l26.336,46.65l130.968-125.4c11.392-10.95,30.279-6.05,35.027,9c1.498,4.85,2.25,9.9,2.25,14.9
							c0,2.953-0.312,5.888-0.827,8.792l15.317-34.891c2.847-6.4,4.248-13.25,4.248-20.15c0-5-0.751-10.05-2.249-14.9
							c-4.748-15.05-23.635-19.95-35.027-9l-130.968,125.4l-26.336-46.65c-4.546-8.05-12.741-12.25-21.037-12.25
							c-6.744,0-13.49,2.75-18.387,8.45c-7.896,9.2-10.943,21.6-8.296,33.45L2468.818,1933.143z"/>
					</g>
				</g>
			</g>
		</g>
		<g>
			<g>
				<g>
					<path style="fill:#595577;" d="M2632.1,2225.426c-14.09,66.25-35.527,153.95-54.966,180.15
						c-32.48,43.75-204.921,84.75-267.382-37.75c-4.648,32.85-10.394,66.55-17.44,99l124.722,326.55
						c3.748,9.9-2.547,20.75-13.041,22.35c-57.615,8.85-232.606,10.5-423.137-236c0,0-218.213,318.35-510.531,190.85l109.931-290.85
						l-6.595-80.45c-27.983,14.55-62.161,22-103.336,15.45c-157.402-25-135.765-190.4-100.787-301.05
						c34.978-110.6,91.642-242.25,276.526-237.25c26.285,0.7,57.064,2.2,90.495,4.2l104.034,180.15l131.917,228.55l117.627-204.3
						l95.441-165.7c31.579,3.25,50.518,5.25,50.518,5.25s225.011,17.65,235.602,161.8v0.05c-12.441,12.9-23.584,26.05-33.429,38.7
						C2438.271,2125.125,2460.557,2253.575,2632.1,2225.426z"/>
				</g>
			</g>
		</g>
		<g>
			<g style="opacity:0.3;">
				<g>
					<g>
						<path style="fill:#371A45;" d="M2549.146,2226.344c-18.848,55.982-54.382,135.008-106.354,141.482
							c-81.116,10.104-122.092-91.771-122.092-91.771l-10.948,91.771c62.461,122.5,234.902,81.5,267.382,37.75
							c19.439-26.2,40.875-113.9,54.966-180.15C2599.264,2230.814,2571.937,2230.432,2549.146,2226.344z"/>
					</g>
				</g>
			</g>
			<g style="opacity:0.3;">
				<g>
					<g>
						<path style="fill:#371A45;" d="M2417.034,2793.375l-19.097-49.999c-190.05-5.082-383.366-185.655-383.366-185.655
							c85.288-1.667,116.248-70,116.248-70s-211.533,55-319.8-25.479c-108.265-80.479-45.46-245.817-45.46-245.817
							c87.789,130.371,215.698,196.233,215.698,196.233c310.604-170.754,310.343-423.116,306.024-479.878
							c-29.837-6.524-51.184-8.206-51.184-8.206s-18.938-2-50.518-5.25l-53.531,92.937c50.808-10.186,75.39-21.288,75.39-21.288
							l-38.726,132.459l-95.982-8.174l-10.084,17.517l27.493,63.695l-117.627,142.5l-131.919-150.47l39.851-58.687l-10.85-18.797
							l-118.12-14.545l36.225-76.5c10.594,1.143,20.91,2.126,31.082,3.029l-82.219-142.375c-33.431-2-64.21-3.5-90.495-4.2
							c-184.885-5-241.548,126.65-276.526,237.25c-34.978,110.65-56.615,276.05,100.787,301.05
							c41.175,6.55,75.353-0.9,103.336-15.45l6.595,80.45l-109.931,290.85c292.317,127.5,510.531-190.85,510.531-190.85
							c190.53,246.5,365.521,244.85,423.136,236C2414.487,2814.125,2420.782,2803.275,2417.034,2793.375z M1492.885,2380.576
							c-85.074,12.146-200.129-122.052,67.458-294.167l96.117,71.667C1656.46,2158.076,1577.959,2368.43,1492.885,2380.576z"/>
					</g>
				</g>
			</g>
		</g>
		<g style="opacity:0.5;">
			<g>
				<g>
					<path style="fill:#FFFFFF;" d="M2471.724,2086.372v0.05c-10.394,10.75-19.888,21.7-28.432,32.4
						c-8.696-109.1-165.448-173.2-240.35-197.7c21.037,2.15,33.18,3.45,33.18,3.45S2461.13,1942.221,2471.724,2086.372z"/>
				</g>
			</g>
		</g>
		<g>
			<g>
				<g>
					<path style="fill:#371A45;" d="M2365.402,2831.049c-81.855,0-227.256-34.082-384.229-230.688
						c-19.863,25.835-68.389,83.643-138.809,132.847c-122.935,85.898-253.311,102.788-377.036,48.823
						c-6.104-2.664-9.048-9.644-6.694-15.874l108.936-288.215l-4.912-59.963c-29.106,11.362-60.742,14.429-94.297,9.089
						c-50.845-8.076-88.12-30.771-110.791-67.454c-43.13-69.792-23.779-174.312,0.054-249.705
						c25.835-81.68,79.614-251.541,288.779-245.977c24.795,0.662,54.531,2.043,90.903,4.221c4.189,0.251,7.974,2.588,10.073,6.223
						l225.117,389.927l202.251-351.216c2.461-4.27,7.202-6.724,12.109-6.191c31.602,3.25,50.552,5.254,50.552,5.254
						c9.287,0.723,235.508,20.217,246.753,173.311c0.024,0.305,0.034,0.61,0.034,0.916c0,3.235-1.255,6.394-3.501,8.723
						c-9.8,10.161-19.502,21.257-28.892,33.044c6.162,22.493,38.916,107.803,178.276,84.951c4.063-0.667,8.213,0.715,11.064,3.706
						c2.847,2.986,4.038,7.188,3.179,11.226c-21.362,100.432-40.591,162.673-57.153,184.995
						c-20.352,27.412-84.502,53.472-152.603,47.759c-49.082-4.109-89.707-24.624-117.378-58.655
						c-3.638,22.407-7.612,43.728-11.88,63.706l123.398,323.086c3.145,8.308,2.388,17.432-2.075,25.066
						c-4.453,7.625-12.017,12.764-20.757,14.097C2395.095,2829.735,2381.477,2831.049,2365.402,2831.049z M1980.856,2567.23
						c3.862,0,7.515,1.787,9.888,4.854c188.774,244.231,362.588,238.784,411.348,231.292c1.719-0.261,2.593-1.362,2.964-1.997
						c0.371-0.64,0.908-1.953,0.293-3.577l-124.712-326.519c-0.864-2.268-1.05-4.739-0.537-7.109
						c6.475-29.817,12.29-62.82,17.28-98.098c0.762-5.398,4.937-9.678,10.313-10.574c5.396-0.911,10.718,1.79,13.193,6.648
						c28.188,55.283,78.511,70.605,115.767,73.726c59.692,4.993,116.24-18.616,130.449-37.749
						c7.725-10.413,24.106-44.768,49.014-157.9c-165.508,18.069-189.917-111.606-190.156-112.964
						c-0.601-3.469,0.288-7.031,2.451-9.81c9.81-12.607,19.99-24.534,30.317-35.522
						c-14.956-126.858-221.499-144.729-223.613-144.895c-0.313-0.029-16.064-1.694-42.754-4.448l-209.019,362.974
						c-2.231,3.872-6.357,6.257-10.825,6.26h-0.005c-4.463,0.002-8.589-2.38-10.82-6.248l-232.588-402.869
						c-33.057-1.934-60.386-3.174-83.369-3.787c-167.515-4.641-225.898,107.163-264.282,228.526
						c-18.218,57.639-42.788,164.041-2.622,229.033c18.677,30.215,50.117,49.026,93.452,55.908
						c34.717,5.518,66.885,0.745,95.62-14.194c3.711-1.931,8.145-1.873,11.807,0.149c3.662,2.024,6.069,5.747,6.411,9.917
						l6.592,80.449c0.151,1.848-0.112,3.706-0.767,5.439l-105.664,279.561c113.428,45.403,228.345,28.271,341.772-50.986
						c88.208-61.633,141.963-139.282,142.495-140.059c2.261-3.296,5.957-5.313,9.951-5.425
						C1980.617,2567.23,1980.739,2567.23,1980.856,2567.23z"/>
				</g>
			</g>
		</g>
		<g>
			<g>
				<g>
					<path style="fill:#371A45;" d="M1573.679,2414.647c-5.557,0-10.923-3.022-13.657-8.296c-3.906-7.534-0.967-16.809,6.567-20.718
						c72.192-37.446,101.133-128.669,101.416-129.585c2.505-8.103,11.104-12.646,19.214-10.151
						c8.101,2.498,12.656,11.079,10.166,19.187c-1.299,4.241-32.837,104.365-116.646,147.834
						C1578.479,2414.093,1576.062,2414.647,1573.679,2414.647z"/>
				</g>
			</g>
		</g>
		<g>
			<g>
				<g>
					<path style="fill:#371A45;" d="M1971.262,2390.573c-0.024,0-0.044,0-0.068,0c-2.788-0.02-5.444-1.204-7.324-3.269l-177.485-195
						c-3.018-3.315-3.462-8.237-1.079-12.036l23.54-37.571l-102.217-19.17c-3.945-0.74-7.065-3.767-7.925-7.688l-52.007-237.412
						c-1.182-5.393,2.231-10.723,7.627-11.904c5.381-1.189,10.723,2.234,11.904,7.627l50.591,230.945l110.127,20.654
						c3.252,0.61,5.991,2.788,7.314,5.815c1.328,3.03,1.069,6.519-0.684,9.319l-27.3,43.572l165.083,181.377L2123,2203.673
						l-22.139-47.634c-1.563-3.367-1.133-7.324,1.118-10.276c2.246-2.954,5.938-4.421,9.614-3.794l86.299,14.578l39.585-238.855
						c0.898-5.447,6.025-9.133,11.499-8.23c5.444,0.903,9.131,6.05,8.228,11.499l-41.226,248.75
						c-0.435,2.62-1.895,4.961-4.058,6.504s-4.873,2.166-7.471,1.719l-77.446-13.086l16.973,36.514
						c1.714,3.696,1.016,8.064-1.768,11.042l-163.647,175C1976.672,2389.425,1974.03,2390.573,1971.262,2390.573z"/>
				</g>
			</g>
		</g>
		<g>
			<g>
				<g>
					<path style="fill:#371A45;" d="M1981.252,2594.948c-5.381,0-9.824-4.28-9.985-9.695c-1.875-61.877-8.745-295.635-8.745-295.635
						l19.98-0.586c0,0,6.87,233.743,8.745,295.615c0.171,5.518-4.17,10.127-9.688,10.295
						C1981.457,2594.945,1981.354,2594.948,1981.252,2594.948z"/>
				</g>
			</g>
		</g>
		<g>
			<g>
				<g>
					<path style="fill:#371A45;" d="M1972.512,2301.82c-4.463,0-8.589-2.38-10.825-6.248l-235.947-408.696
						c-2.3-3.984-2.227-8.911,0.19-12.822c2.422-3.909,6.704-6.174,11.387-5.901c146.606,8.901,344.57,28.093,449.521,38.74
						c4.219,0.427,7.93,2.961,9.863,6.733c1.929,3.769,1.821,8.264-0.293,11.936l-213.066,369.998
						c-2.231,3.872-6.357,6.257-10.825,6.26H1972.512z M1759.04,1894.567l213.457,369.736l192.617-334.485
						C2062.722,1919.537,1893.513,1903.37,1759.04,1894.567z"/>
				</g>
			</g>
		</g>
		<g>
			<g>
				<g>
					<path style="fill:#FFFFFF;" d="M2090.139,2085.026l-117.627,204.299l-131.919-228.55
						C1899.458,2079.826,1985.102,2096.376,2090.139,2085.026z"/>
				</g>
			</g>
		</g>
		<g style="opacity:0.3;">
			<g>
				<g>
					<path style="fill:#371A45;" d="M1987.508,2132.084c21.474,4.18,44.918,7.491,70.151,9.357l32.48-56.415
						c-105.037,11.35-190.682-5.2-249.546-24.25l131.919,228.55l24.867-43.189l-40.774-70.641
						C1944.044,2153.734,1962.856,2127.286,1987.508,2132.084z"/>
				</g>
			</g>
		</g>
		<g>
			<g>
				<g>
					<path style="fill:#371A45;" d="M1972.512,2301.82c-4.463,0-8.589-2.38-10.82-6.248l-131.919-228.55
						c-2.588-4.48-2.148-10.085,1.104-14.106s8.647-5.63,13.564-4.031c52.969,17.141,138.359,35.171,244.355,23.716
						c4.644-0.508,9.238,1.655,11.807,5.596c2.573,3.94,2.71,8.989,0.366,13.064l-117.627,204.299
						c-2.231,3.872-6.357,6.257-10.825,6.26H1972.512z M1866.984,2081.498l105.513,182.808l94.829-164.7
						C1985.876,2105.348,1917.263,2094.672,1866.984,2081.498z"/>
				</g>
			</g>
		</g>
		<g>
			<g>
				<g>
					<path style="fill:#371A45;" d="M2471.701,2098.871c-3.11,0-6.226-1.152-8.647-3.474c-4.98-4.775-5.151-12.686-0.376-17.668
						c5.923-6.174,11.655-11.875,17.393-17.28l-29.155-129.988c-3.501-15.645,0.61-32.21,10.996-44.319
						c6.997-8.145,17.158-12.81,27.876-12.81c13.208,0,25.439,7.126,31.919,18.599l18.428,32.647l119.351-114.277
						c8.457-8.127,20.313-11.25,31.689-8.345c11.421,2.915,20.352,11.367,23.901,22.615c1.88,6.084,2.822,12.339,2.822,18.657
						c0,8.801-1.792,17.29-5.322,25.227l-27.012,61.45c-2.783,6.316-10.161,9.18-16.47,6.411c-6.318-2.778-9.189-10.151-6.411-16.47
						l27.036-61.499c2.124-4.771,3.188-9.839,3.188-15.12c0-3.813-0.571-7.585-1.689-11.208c-1.318-4.175-4.795-5.481-6.226-5.847
						c-1.411-0.359-5.044-0.869-8.208,2.163l-130.981,125.417c-2.788,2.669-6.65,3.897-10.469,3.335
						c-3.818-0.562-7.158-2.859-9.058-6.218l-26.333-46.65c-2.08-3.691-5.879-5.896-10.156-5.896c-2.012,0-5.85,0.532-8.911,4.097
						c-5.273,6.15-7.358,14.595-5.576,22.578l30.728,136.995c0.981,4.38-0.459,8.95-3.774,11.973
						c-7.124,6.487-14.165,13.376-21.528,21.06C2478.269,2097.582,2474.987,2098.871,2471.701,2098.871z"/>
				</g>
			</g>
		</g>
		<g>
			<g>
				<g>
					<path style="fill:#371A45;" d="M2380.598,2228.92c-1.743,0-3.516-0.366-5.205-1.145c-6.27-2.881-9.019-10.293-6.143-16.563
						c0.815-1.78,20.444-44.146,59.17-93.774c4.248-5.442,12.1-6.416,17.539-2.163c5.444,4.246,6.411,12.097,2.168,17.539
						c-36.826,47.188-55.977,88.418-56.167,88.828C2389.855,2226.22,2385.329,2228.92,2380.598,2228.92z"/>
				</g>
			</g>
		</g>
		<g>
			<g>
				<g>
					<path style="fill:#371A45;" d="M2644.523,2016.737c-0.488,0-0.981-0.029-1.479-0.088c-2.334-0.276-23.145-3.181-35.605-20.183
						c-7.92-10.806-10.405-24.299-7.393-40.107c5.488-28.801,45.166-46.938,76.802-43.972c32.119,3.035,51.289,25.476,51.289,60.032
						c0,6.902-5.596,12.495-12.495,12.495s-12.495-5.593-12.495-12.495c0-21.528-9.639-33.355-28.647-35.149
						c-22.886-2.163-47.573,11.553-49.902,23.769c-1.65,8.657-0.669,15.566,2.915,20.537c6.138,8.516,18.433,10.249,18.555,10.266
						c6.802,0.908,11.65,7.144,10.791,13.953C2656.062,2012.108,2650.725,2016.737,2644.523,2016.737z"/>
				</g>
			</g>
		</g>
		<g>
			<g>
				<g>
					<path style="fill:#371A45;" d="M2665.188,2053.456c-0.444,0-0.889-0.024-1.338-0.071c-22.09-2.354-30.957-12.437-34.507-20.479
						c-5.264-11.939-2.295-26.511,8.369-41.03c13.75-18.721,41.289-37.49,69.082-34.319c17.612,1.983,27.104,10.737,31.973,17.732
						c12.427,17.866,8.745,42.844,5.449,56.145c-1.66,6.697-8.462,10.776-15.137,9.121c-6.699-1.66-10.781-8.438-9.121-15.137
						c2.954-11.902,4.053-27.573-1.709-35.857c-2.827-4.063-7.485-6.409-14.248-7.17c-16.396-1.831-36.323,10.901-46.143,24.277
						c-5.513,7.505-6.807,13.516-5.649,16.147c0.942,2.126,5.186,4.746,14.287,5.715c6.865,0.732,11.836,6.887,11.104,13.75
						C2676.916,2048.695,2671.496,2053.456,2665.188,2053.456z"/>
				</g>
			</g>
		</g>
		<g>
			<g>
				<g>
					<path style="fill:#371A45;" d="M2632.116,2237.924c-0.864,0-1.738-0.088-2.612-0.273c-6.748-1.436-11.06-8.071-9.624-14.822
						c9.282-43.704,15.444-78.481,15.508-78.826c0.718-4.07,3.403-7.522,7.173-9.221c26.47-11.938,99.497-53.442,88.242-86.421
						c-1.514-4.421-6.123-17.866-27.988-13.645c-19.531,3.774-33.833,17.981-33.589,22.605c10.498,14.658,20.913,9.756,21.362,9.546
						c6.177-3.054,13.682-0.508,16.729,5.684c3.052,6.191,0.508,13.682-5.684,16.733c-10.322,5.093-34.648,7.925-52.847-17.729
						c-6.035-8.489-6.074-19.285-0.088-29.6c10.21-17.62,40.337-35.41,67.271-32.742c18.608,1.836,32.275,12.871,38.486,31.077
						c18.613,54.546-69.404,101.785-95.615,114.463c-2.222,12.117-7.485,40.171-14.517,73.271
						C2643.078,2233.898,2637.888,2237.924,2632.116,2237.924z"/>
				</g>
			</g>
		</g>
		<g>
			<g>
				<g>
					<g>
						<path style="fill:#371A45;" d="M2595.872,2140.992c-0.308,0.899-1.768,1.289-4.248,1.182
							c-2.52,0.005-5.928-0.869-10.088-2.437c-3.984-1.882-8.848-4.446-13.135-8.933c-4.331-4.351-8.208-10.342-10.205-17.314
							c-0.698-2.529-1.216-5.059-1.431-7.581c-0.239-2.617-0.273-4.773,0.098-7.827l3.936,6.877
							c-16.528-8.013-27.778-15.693-26.553-18.55c1.225-2.856,14.541-0.002,31.743,6.448c2.383,0.896,3.867,3.135,3.916,5.534
							l0.02,1.345c0.015,0.987,0.073,3.037,0.356,4.668c0.225,1.741,0.64,3.503,1.123,5.273c2.788,9.8,9.473,16.883,15.117,21.714
							C2592.274,2136.112,2596.561,2139.049,2595.872,2140.992z"/>
					</g>
				</g>
			</g>
		</g>
		<g>
			<g>
				<g>
					<path style="fill:#371A45;" d="M2297.38,2366.058c6.636-37.141,12.297-74.555,16.956-112.131
						c4.692-37.558,8.601-75.327,11.335-113.067l0.005-0.06c0.164-2.27,2.139-3.977,4.407-3.812
						c2.163,0.157,3.816,1.971,3.823,4.104c0.044,38.156-1.086,76.193-3.018,114.286c-1.902,38.084-4.822,76.154-8.767,114.216
						c-0.71,6.869-6.858,11.862-13.728,11.149c-6.87-0.712-11.86-6.858-11.15-13.728c0.032-0.297,0.073-0.59,0.125-0.88
						L2297.38,2366.058z"/>
				</g>
			</g>
		</g>
		<g>
			<g>
				<g>
					<path style="fill:#371A45;" d="M1742.727,2610.751l13.479-55.374l9.609,13.525l-0.005,0
						c-12.354,0.19-24.167-0.267-36.233-1.074c-12.002-0.812-24.004-2.113-35.991-4.107c-11.982-1.969-23.972-4.487-35.83-8.458
						c-11.814-3.977-23.704-8.906-34.556-17.257l-0.002-0.003l16.182-7.425l-9.756,49.261c-0.251,1.268-1.484,2.093-2.751,1.841
						c-1.025-0.203-1.76-1.05-1.873-2.035l-5.593-49.906c-0.544-4.859,2.952-9.24,7.813-9.784c1.584-0.178,3.12,0.075,4.487,0.665
						l3.884,1.694l0.002,0.001c7.876,6.09,17.971,10.483,28.401,13.951c10.469,3.524,21.597,5.884,32.827,7.723
						c11.233,1.873,22.661,3.117,34.141,3.892c11.418,0.774,23.149,1.206,34.333,1.032l0.005,0.001l2.651,0.314
						c4.971,0.588,8.523,5.094,7.935,10.064c-0.134,1.123-0.483,2.202-0.977,3.148l-26.494,50.459
						c-0.786,1.498-2.639,2.075-4.136,1.288C1743.008,2613.522,1742.4,2612.086,1742.727,2610.751z"/>
				</g>
			</g>
		</g>
		<g>
			<g>
				<g>
					<path style="fill:#371A45;" d="M2282.026,2626.353c-3.467-4.859-5.898-9.462-8.257-14.466
						c-2.292-4.948-4.241-10.05-5.901-15.26c-1.565-5.223-3.003-10.533-3.96-15.934c-1.06-5.394-1.699-10.855-2.205-16.354v-0.012
						l12.068,9.78c-10.569,2.191-20.967,4.114-31.494,5.937c-10.503,1.821-21.05,3.455-31.658,4.883
						c-10.603,1.446-21.274,2.655-32.092,3.433c-10.852,0.732-21.694,1.313-33.289,0.297l-0.02-0.001l10.923-10.352
						c-0.247,3.429-0.317,7.309-0.315,10.979c0.007,3.719,0.127,7.437,0.405,11.104c0.271,3.668,0.659,7.324,1.333,10.814
						c0.659,3.481,1.531,6.912,2.842,9.791l0.129,0.281c1.157,2.543,0.034,5.544-2.51,6.702c-2.2,1.002-4.746,0.293-6.14-1.563
						c-2.795-3.715-4.666-7.6-6.333-11.49c-1.66-3.9-2.949-7.823-4.111-11.765c-1.169-3.944-2.156-7.9-3.022-11.877
						c-0.867-4.027-1.636-7.868-2.256-12.177c-0.718-4.998,2.754-9.631,7.751-10.348c0.586-0.084,1.167-0.11,1.738-0.084
						l1.433,0.079l0.015,0.001c9.463,0.853,19.79,0.378,29.978-0.332c10.239-0.734,20.559-1.898,30.872-3.306
						c20.598-2.779,41.348-6.412,61.677-10.565l0.522-0.107c5.21-1.065,10.298,2.297,11.362,7.508
						c0.159,0.784,0.215,1.614,0.183,2.379v0.011c-0.356,4.791-0.615,9.626-0.481,14.461c0.032,4.85,0.513,9.672,1.106,14.508
						c0.684,4.813,1.643,9.603,2.925,14.307c1.257,4.622,2.964,9.5,4.858,13.435l0.198,0.409c1.157,2.402,0.146,5.285-2.253,6.442
						C2285.901,2628.933,2283.364,2628.232,2282.026,2626.353z"/>
				</g>
			</g>
		</g>
		<g>
			<g>
				<g>
					<ellipse style="fill:#371A45;" cx="2014.569" cy="2437.451" rx="19.155" ry="24.792"/>
				</g>
			</g>
		</g>
		<g>
			<g>
				<g>
					<path style="fill:#371A45;" d="M1407.854,2170.531c-2.456,0-4.927-0.72-7.09-2.219c-5.649-3.918-7.095-11.628-3.208-17.297
						c1.113-1.631,28.281-40.344,110.288-77.427c6.299-2.849,13.687-0.044,16.533,6.238c2.842,6.289,0.049,13.691-6.24,16.536
						c-74.81,33.831-99.766,68.491-100.005,68.838C1415.69,2168.666,1411.804,2170.531,1407.854,2170.531z"/>
				</g>
			</g>
		</g>
		<g>
			<g>
				<g>
					<path style="fill:#371A45;" d="M1654.86,2329.523c-0.459,0-0.972-0.032-1.426-0.095
						c-176.689-24.597-220.474-132.327-230.845-194.353c-0.913-5.444,2.764-10.598,8.208-11.509
						c5.513-0.898,10.601,2.769,11.509,8.213c9.468,56.599,49.829,154.949,213.74,177.825c4.941,0.608,8.784,4.819,8.784,9.922
						C1664.831,2325.045,1660.383,2329.523,1654.86,2329.523z"/>
				</g>
			</g>
		</g>
		<g>
			<g>
				<g>
					<path style="fill:#371A45;" d="M2571.555,2308.664c-156.021,0-185.493-116.577-185.801-117.864
						c-1.265-5.374,2.061-10.759,7.437-12.026c5.337-1.277,10.737,2.046,12.017,7.407c1.245,5.103,31.826,122.378,209.448,99.602
						c5.435-0.723,10.483,3.167,11.187,8.643s-3.169,10.486-8.647,11.187C2600.896,2307.704,2585.7,2308.664,2571.555,2308.664z"/>
				</g>
			</g>
		</g>
		<g>
			<g>
				<g>
					<path style="fill:#875245;" d="M1496.145,728.076c0,0-160.593-458.369-499.688-171.667
						c-429.731,363.335,129.084,569.167-60.797,874.167c0,0,296.48-27.688,400.585-288.843
						C1440.345,880.576,1496.145,728.076,1496.145,728.076z"/>
				</g>
			</g>
		</g>
		<g style="opacity:0.3;">
			<g>
				<g>
					<path style="fill:#371A45;" d="M1045.665,622.262c-270.314,259.056,109.517,475.563-75.27,761.644
						c126.381-79.411,162.716-245.83,162.716-245.83c0.986,101.665-9.679,180.588-27.385,241.912
						c84.988-40.384,180.214-112.057,230.52-238.255c104.1-261.157,159.9-413.657,159.9-413.657S1330.486,349.302,1045.665,622.262z
						"/>
				</g>
			</g>
		</g>
		<g>
			<g>
				<g>
					<path style="fill:#371A45;" d="M935.656,1443.073c-4.302,0-8.335-2.222-10.625-5.928c-2.495-4.041-2.485-9.143,0.019-13.174
						c77.568-124.595,24.356-231.66-31.982-345.015c-38.228-76.914-77.759-156.448-75.879-243.684
						c2.124-98.462,58.125-192.803,171.201-288.408c98.149-82.978,191.816-113.096,278.345-89.512
						c161.538,44.006,238.027,257.522,241.201,266.592c0.957,2.73,0.938,5.708-0.059,8.425
						c-0.557,1.526-57.051,155.654-160.024,413.989c-55.317,138.767-164.185,212.058-245.771,249.107
						c-88.037,39.975-162.148,47.261-165.259,47.551C936.433,1443.053,936.047,1443.073,935.656,1443.073z M1208.82,474.621
						c-63.95,0-132.427,30.566-204.297,91.331c-238.354,201.528-165.845,347.422-89.072,501.882
						c53.701,108.057,109.131,219.59,43.828,346.465c72.266-13.518,282.759-69.981,365.361-277.192
						c93.276-234.019,148.34-382.341,158.179-409.002c-11.357-29.57-85.537-209.343-222.729-246.66
						C1243.361,476.893,1226.252,474.621,1208.82,474.621z"/>
				</g>
			</g>
		</g>
		<g>
			<g>
				<g>
					<path style="fill:#FD6CCB;" d="M1407.802,546.826c0,0,51.281-152.5,142.474-158.75c91.193-6.25,58.713,176.875,58.713,176.875
						l-160.832,67.7L1407.802,546.826z"/>
				</g>
			</g>
		</g>
		<g>
			<g>
				<g>
					<path style="fill:#371A45;" d="M1448.161,645.15c-4.702,0-9.189-2.671-11.313-7.183l-40.356-85.825
						c-1.372-2.915-1.563-6.248-0.537-9.299c2.202-6.55,55.078-160.491,153.467-167.234c20.859-1.443,37.886,5.198,50.884,19.665
						c42.495,47.312,21.89,166.794,20.991,171.858c-0.742,4.175-3.55,7.69-7.456,9.336l-160.835,67.7
						C1451.423,644.833,1449.777,645.15,1448.161,645.15z M1421.311,546.198l33.052,70.283l143.403-60.364
						c5.313-35.544,10.649-114.429-16.064-144.15c-7.7-8.567-17.656-12.3-30.571-11.426
						C1477.746,405.57,1430.568,521.442,1421.311,546.198z"/>
				</g>
			</g>
		</g>
		<g>
			<g>
				<g>
					
						<ellipse transform="matrix(0.4756 -0.8796 0.8796 0.4756 188.2339 1531.2935)" style="fill:#FD6CCB;" cx="1378.509" cy="607.763" rx="88.425" ry="73.714"/>
				</g>
			</g>
		</g>
		<g>
			<g>
				<g>
					<path style="fill:#371A45;" d="M1366.75,705.641c-12.759,0-25.117-3.064-36.353-9.165
						c-41.777-22.678-54.185-80.925-27.656-129.841c12.651-23.33,32.231-41.199,55.142-50.317
						c23.716-9.436,48.125-8.462,68.74,2.732c41.768,22.681,54.175,80.928,27.656,129.844l0,0
						c-12.651,23.33-32.236,41.199-55.146,50.315C1388.342,703.502,1377.409,705.641,1366.75,705.641z M1390.222,534.909
						c-7.534,0-15.337,1.54-23.096,4.629c-17.485,6.958-32.549,20.813-42.412,39.011c-19.961,36.807-12.065,79.856,17.607,95.964
						c13.984,7.59,30.879,8.118,47.568,1.475c17.485-6.958,32.549-20.813,42.417-39.009l0,0
						c19.956-36.807,12.056-79.858-17.607-95.967C1407.214,536.95,1398.898,534.909,1390.222,534.909z M1443.293,642.936h0.049
						H1443.293z"/>
				</g>
			</g>
		</g>
		<g>
			<g>
				<g>
					<path style="fill:#FD6CCB;" d="M1358.729,712.242c0,0,24.984-113.333-64.959-160.833c-89.944-47.5-176.556,7.5-187.383,85.833
						C1095.561,715.576,1217.151,835.576,1358.729,712.242z"/>
				</g>
			</g>
		</g>
		<g style="opacity:0.3;">
			<g>
				<g>
					<path style="fill:#371A45;" d="M1611.234,452.692c-8.591-6.181-19.334-9.491-32.85-8.565
						c-70.945,4.862-117.719,98.214-134.999,139.441c-33.443-14.215-75.27,2.606-98.278,39.601
						c-6.739-5.751-14.415-11.054-23.228-15.709c-89.944-47.5-176.557,7.5-187.383,85.833c-1.118,8.091-0.803,16.629,0.781,25.294
						c43.218,49.834,128.87,76.049,223.454-6.346c0,0,1.645-7.526,2.569-19.465c30.689,2.522,63.825-16.338,81.992-49.842
						c1.845-3.404,3.406-6.867,4.836-10.348l0.029,0.064l160.832-67.7C1608.989,564.951,1619.896,503.247,1611.234,452.692z"/>
				</g>
			</g>
		</g>
		<g>
			<g>
				<g>
					<path style="fill:#371A45;" d="M1235.876,777.78c-23.682,0-46.689-5.735-68.198-17.368
						c-48.232-26.087-79.902-79.773-73.667-124.88c5.894-42.632,32.358-79.854,70.801-99.565
						c40.767-20.908,89.907-19.314,134.795,4.394c97.236,51.35,71.597,173.347,71.323,174.573c-0.576,2.615-1.978,4.973-3.994,6.731
						C1324.362,758.749,1279.006,777.78,1235.876,777.78z M1226.145,546.178c-17.393,0-34.272,3.999-49.927,12.026
						c-31.196,15.996-52.676,46.182-57.451,80.749c-4.883,35.322,21.255,78.086,60.801,99.473
						c29.551,15.986,90.327,32.673,167.695-32.81c3.306-19.656,12.988-104.963-59.326-143.157
						C1267.409,551.62,1246.433,546.178,1226.145,546.178z M1358.728,712.243h0.049H1358.728z M1358.728,712.243h0.049H1358.728z"/>
				</g>
			</g>
		</g>
		<g>
			<g>
				<g>
					<ellipse style="fill:#FFC891;" cx="1250.776" cy="1529.638" rx="99.001" ry="99.063"/>
				</g>
			</g>
		</g>
		<g style="opacity:0.3;">
			<g>
				<g>
					<ellipse style="fill:#390176;" cx="1287.003" cy="1529.638" rx="99.001" ry="99.063"/>
				</g>
			</g>
		</g>
		<g>
			<g>
				<g>
					<path style="fill:#371A45;" d="M1250.778,1641.195c-61.479,0-111.499-50.044-111.499-111.558
						c0-61.514,50.02-111.558,111.499-111.558s111.494,50.044,111.494,111.558
						C1362.272,1591.151,1312.258,1641.195,1250.778,1641.195z M1250.778,1443.07c-47.7,0-86.509,38.835-86.509,86.567
						c0,47.732,38.809,86.567,86.509,86.567s86.504-38.835,86.504-86.567C1337.282,1481.906,1298.479,1443.07,1250.778,1443.07z"/>
				</g>
			</g>
		</g>
		<g>
			<g>
				<g>
					<ellipse style="fill:#FFC891;" cx="2643.417" cy="1539.638" rx="99.001" ry="99.063"/>
				</g>
			</g>
		</g>
		<g>
			<g>
				<g>
					<path style="fill:#371A45;" d="M2643.415,1651.195c-61.479,0-111.494-50.044-111.494-111.558
						c0-61.514,50.015-111.558,111.494-111.558s111.499,50.044,111.499,111.558
						C2754.914,1601.151,2704.895,1651.195,2643.415,1651.195z M2643.415,1453.07c-47.7,0-86.504,38.835-86.504,86.567
						c0,47.732,38.804,86.567,86.504,86.567s86.509-38.835,86.509-86.567C2729.924,1491.906,2691.115,1453.07,2643.415,1453.07z"/>
				</g>
			</g>
		</g>
		<g>
			<g>
				<g>
					<path style="fill:#FFC891;" d="M2662.33,1494.825c-112.927,342.05-388.156,492.4-709.805,492.4
						c-316.653,0-588.382-207.15-704.46-522.7c0,0-16.789-651.45,511.231-791.45S2744.63,938.175,2662.33,1494.825z"/>
				</g>
			</g>
		</g>
		<g style="opacity:0.3;">
			<g>
				<g>
					<path style="fill:#371A45;" d="M1982.506,1935.559c-316.653,0-554.051-255.683-670.128-571.233
						c0,0-40.612-197.139,76.79-419.176c-148.406,233.665-141.103,519.376-141.103,519.376
						c116.077,315.55,387.807,522.7,704.46,522.7c278.937,0,522.884-113.172,656.423-366.281
						C2470.677,1837.84,2241.697,1935.559,1982.506,1935.559z"/>
				</g>
			</g>
		</g>
		<g>
			<g>
				<g>
					<path style="fill:#371A45;" d="M1952.526,1999.721c-157.212,0-307.607-50.315-434.932-145.505
						c-125.879-94.114-223.135-227.375-281.26-385.376c-0.469-1.279-0.728-2.629-0.762-3.992
						c-0.176-6.743-3.545-167.185,58.276-347.598c82.285-240.122,242.124-397.891,462.241-456.252
						c255.522-67.747,506.855-12.971,689.57,150.283c185.454,165.698,268.931,415.505,229.033,685.373
						c-0.107,0.708-0.273,1.409-0.498,2.09c-55.068,166.802-149.839,294.993-281.67,381.016
						C2270.539,1959.362,2122.502,1999.721,1952.526,1999.721z M1260.529,1462.203c115.4,311.418,386.807,512.527,691.997,512.527
						c346.685,0,594.39-171.453,697.598-482.798c38.276-260.999-42.285-502.234-221.113-662.014
						c-176.338-157.554-419.272-210.317-666.514-144.766c-214.473,56.868-364.111,204.736-444.766,439.5
						C1260.832,1290.277,1260.344,1443.058,1260.529,1462.203z M2662.331,1494.826h0.049H2662.331z"/>
				</g>
			</g>
		</g>
		<g>
			<g>
				<g>
					<path style="fill:#371A45;" d="M1711.091,1166.916c4.207-8.722,9.136-16.379,14.88-23.879
						c5.662-7.496,12.158-14.455,19.395-20.902c14.443-12.656,32.739-23.491,54.453-26.663c10.735-1.53,22.043-1.298,32.769,1.194
						c10.82,2.31,20.762,6.959,29.57,12.553c2.173,1.44,4.397,2.835,6.484,4.364l5.93,4.84c4.077,3.149,7.241,6.946,10.781,10.467
						c3.364,3.609,6.223,7.564,9.255,11.358c2.668,4.009,5.259,8.043,7.625,12.192c4.238,7.429,1.65,16.886-5.779,21.124
						c-5.718,3.26-12.634,2.48-17.451-1.439l-1.111-0.913c-3.225-2.637-6.204-5.412-9.146-8.173l-8.982-7.696
						c-6.118-4.678-11.975-9.472-18.159-12.921c-12.229-7.376-24.587-11.484-38.11-11.204c-13.486,0.293-28.035,5.322-41.909,13.253
						c-13.914,7.78-27.48,18.458-39.834,29.764l-0.369,0.338c-2.661,2.435-6.792,2.253-9.229-0.409
						C1710.303,1172.139,1709.973,1169.249,1711.091,1166.916z"/>
				</g>
			</g>
		</g>
		<g>
			<g>
				<g>
					<path style="fill:#371A45;" d="M2148.369,1182.903c6.277-7.375,12.983-13.535,20.439-19.338
						c7.373-5.82,15.42-10.908,24.053-15.314c17.178-8.588,37.622-14.44,59.431-12.007c10.774,1.24,21.655,4.329,31.399,9.454
						c9.88,4.974,18.32,11.985,25.427,19.628c1.736,1.943,3.535,3.854,5.166,5.862l4.514,6.182
						c3.149,4.078,5.249,8.552,7.781,12.853c2.341,4.343,4.109,8.892,6.082,13.329c1.567,4.554,3.054,9.111,4.294,13.723
						c2.219,8.259-2.676,16.755-10.935,18.975c-6.355,1.709-12.849-0.796-16.519-5.804l-0.842-1.164
						c-2.454-3.367-4.634-6.805-6.782-10.22l-6.746-9.719c-4.734-6.073-9.189-12.193-14.299-17.095
						c-9.963-10.233-20.884-17.337-34.036-20.492c-13.123-3.133-28.467-1.949-43.896,2.211
						c-15.427,4.004-31.255,10.902-46.067,18.715l-0.442,0.233c-3.191,1.683-7.144,0.461-8.826-2.73
						C2146.284,1187.757,2146.699,1184.877,2148.369,1182.903z"/>
				</g>
			</g>
		</g>
		<g>
			<g>
				<g>
					<path style="fill:#371A45;" d="M1880.115,1542.765c2.605,9.777,0.989,19.446-2.302,28.491
						c-3.308,9.063-8.86,17.098-15.315,23.952c-6.399,7.013-14.146,12.322-22.126,16.825c-4.053,2.123-8.276,3.886-12.458,5.601
						c-4.365,1.307-8.679,2.636-13.152,3.436c-2.388,0.427-4.67-1.162-5.095-3.55c-0.276-1.53,0.278-3.017,1.34-4l0.281-0.255
						c3.271-2.981,6.699-5.432,10.073-7.905c3.262-2.612,6.536-5.115,9.8-7.525c6.184-5.247,12.52-10.076,17.908-15.695
						c5.513-5.49,10.537-11.317,14.836-17.742c4.163-6.396,7.842-13.651,10.225-21.162l0.193-0.605
						c0.503-1.589,2.2-2.468,3.789-1.965C1879.124,1540.987,1879.851,1541.812,1880.115,1542.765z"/>
				</g>
			</g>
		</g>
		<g>
			<g>
				<g>
					<path style="fill:#371A45;" d="M2120.769,1586.426c0,0-49.969,121.65-63.31,205.8c-0.549,3.55-1.349,6.9-2.299,10.1
						c-0.2,0.75-0.449,1.5-0.749,2.2c-23.535,69.9-142.013,49.4-175.191-42.3c-1.801-4.9-3.448-9.8-4.997-14.7
						c-2.698-8.4-5.048-16.7-7.146-24.9c-13.59-53.45-15.14-100.85-14.642-126.55c2.049-1.95,3.85-3.95,5.397-5.9
						C1898.46,1606.226,1983.604,1624.876,2120.769,1586.426z"/>
				</g>
			</g>
		</g>
		<g>
			<g>
				<g>
					<path style="fill:#F4457F;" d="M2054.412,1804.526c-23.535,69.9-142.013,49.4-175.191-42.3c-1.801-4.9-3.448-9.8-4.997-14.7
						c-2.698-8.4-5.048-16.7-7.146-24.9c15.291-4.1,31.882-6.3,49.22-6.3C1988.801,1716.325,2048.266,1755.125,2054.412,1804.526z"
						/>
				</g>
			</g>
		</g>
		<g style="opacity:0.3;">
			<g>
				<g>
					<path style="fill:#390176;" d="M1923.36,1779.725c-1.801-4.9-3.448-9.8-4.997-14.7v0c-4.386-13.669,4.641-28.185,18.89-29.858
						c7.538-0.885,15.283-1.342,23.183-1.342c15.834,0,31.047,1.851,45.218,5.259c-24.127-14.197-55.303-22.759-89.357-22.759
						c-17.338,0-33.929,2.2-49.22,6.3c2.098,8.2,4.448,16.5,7.146,24.9c1.549,4.9,3.196,9.8,4.997,14.7
						c17.246,47.666,57.534,76.039,95.56,82.532C1952.909,1830.608,1933.859,1808.744,1923.36,1779.725z"/>
				</g>
			</g>
		</g>
		<g>
			<g>
				<g>
					<path style="fill:#371A45;" d="M1991.608,1856.207c-44.692,0-99.961-30.239-121.787-90.581
						c-25.396-70.215-28.052-136.494-27.378-169.753c0.054-2.664,1.167-5.195,3.096-7.034c1.611-1.536,3.115-3.176,4.463-4.878
						c2.734-3.45,7.407-4.702,11.504-3.083c37.515,14.819,120.723,33.999,256.563-4.08c3.687-1.033,7.627,0.127,10.166,2.981
						c2.544,2.854,3.232,6.909,1.782,10.444c-0.498,1.206-49.678,121.558-62.686,203.567c-5.605,35.371-30.571,58.547-66.792,62
						C1997.619,1856.068,1994.636,1856.207,1991.608,1856.207z M1862.355,1602.519c-0.176,33.467,3.467,93.269,26.265,156.306
						c19.888,54.971,71.592,80.74,110.02,77.061c26.958-2.568,44.8-19.05,48.945-45.225c10.4-65.598,42.061-151.98,56.582-189.482
						C1982.634,1631.647,1903.293,1616.84,1862.355,1602.519z"/>
				</g>
			</g>
		</g>
		<g>
			<g>
				<g>
					<path style="fill:#875245;" d="M2662.33,1494.825l-34.266-26.17c-135.204,121.83-10.538,196.92-10.538,196.92
						s-8.33-19.583,22.486-62.5C2670.826,1560.159,2662.33,1494.825,2662.33,1494.825z"/>
				</g>
			</g>
		</g>
		<g>
			<g>
				<g>
					<path style="fill:#371A45;" d="M2617.521,1678.07c-2.217,0-4.448-0.588-6.44-1.792c-2.148-1.292-52.646-32.315-58.008-88.186
						c-4.023-41.946,18.389-85.254,66.626-128.718c4.468-4.028,11.172-4.299,15.947-0.65l34.268,26.17
						c2.646,2.021,4.38,5.017,4.81,8.32c0.371,2.866,8.75,70.757-24.561,117.148c-24.302,33.848-21.191,50.191-21.138,50.32
						c2.119,4.988,0.786,10.771-3.301,14.324C2623.391,1677.033,2620.466,1678.07,2617.521,1678.07z M2628.85,1484.982
						c-36.733,35.254-53.853,69.038-50.918,100.527c2.285,24.485,16.597,43.391,28.672,55.239
						c3.223-11.553,9.99-26.484,23.257-44.961c22.861-31.841,21.641-79.016,20.532-94.355L2628.85,1484.982z"/>
				</g>
			</g>
		</g>
		<g>
			<g>
				<g>
					<path style="fill:#875245;" d="M1342.906,1376.201l-81.199,61.875c-59.963,156.25,33.729,219.375,33.729,219.375
						s8.745-25,66.209-137.5C1419.108,1407.451,1342.906,1376.201,1342.906,1376.201z"/>
				</g>
			</g>
		</g>
		<g style="opacity:0.3;">
			<g>
				<g>
					<path style="fill:#371A45;" d="M1342.906,1376.201l-81.199,61.875c-59.963,156.25,33.729,219.375,33.729,219.375
						s8.745-25,66.209-137.5C1419.108,1407.451,1342.906,1376.201,1342.906,1376.201z"/>
				</g>
			</g>
		</g>
		<g>
			<g>
				<g>
					<path style="fill:#371A45;" d="M1295.412,1669.931c-2.451,0-4.878-0.715-6.958-2.117
						c-4.16-2.805-101.216-70.564-38.413-234.216c0.83-2.166,2.246-4.055,4.092-5.461l81.201-61.875
						c3.53-2.693,8.213-3.298,12.314-1.624c1.206,0.496,29.624,12.48,42.153,46.316c11.587,31.287,5.859,69.871-17.031,114.68
						c-55.771,109.199-65.181,134.944-65.557,135.986c-1.299,3.633-4.209,6.479-7.876,7.683
						C1298.059,1669.723,1296.73,1669.931,1295.412,1669.931z M1272.126,1445.844c-40.503,108.694-2.344,168.14,18.608,190.622
						c8.203-18.384,25.283-54.658,59.78-122.2c19.448-38.076,24.839-69.758,16.025-94.165
						c-5.659-15.666-16.001-24.651-22.544-29.021L1272.126,1445.844z"/>
				</g>
			</g>
		</g>
		<g>
			<g>
				<g>
					<path style="fill:#875245;" d="M2717.047,1170.475c0,124.9-19.438,232.65-54.717,324.35
						c-100.187-51.75-57.762-187.95-57.762-187.95c-65.66-95.25-117.927-298-250.395-423.3
						c-127.72-120.85-306.708-23.85-306.708-23.85s-122.423-54.15-242.349,70.85c-88.543,92.3-217.964,220.05-351.031,278.55
						c-11.543,79.85-54.617,208.6-210.318,249.5c-35.93-87.5-55.766-184.5-55.766-288.15c0-281.65,146.359-528.45,365.721-665.5
						c51.767-32.35,136.465-52.75,205.572-30.25c66.658-47.45,115.528-54.15,196.576-54.15
						C2378.109,420.576,2717.047,739.776,2717.047,1170.475z"/>
				</g>
			</g>
		</g>
		<g style="opacity:0.3;">
			<g>
				<g>
					<path style="fill:#371A45;" d="M2544.415,1077.722c-128.774-280-301.577-380-490.004-246.667
						c0,0-114.035-106.667-251.169,26.667c-128.789,125.221-400.458,318.044-611.31,233.356
						c-2.586,26.109-3.931,52.593-3.931,79.398c0,103.65,19.836,200.65,55.766,288.15c155.701-40.9,198.775-169.65,210.318-249.5
						c133.066-58.5,262.487-186.25,351.031-278.55c119.925-125,242.349-70.85,242.349-70.85s178.987-97,306.708,23.85
						c132.469,125.3,184.736,328.05,250.395,423.3c0,0-42.425,136.2,57.762,187.95c20.846-54.187,36.11-114.026,45.153-179.649
						C2666.888,1285.072,2609.663,1219.591,2544.415,1077.722z"/>
				</g>
			</g>
		</g>
		<g style="opacity:0.6;">
			<g>
				<g>
					<g>
						<path style="fill:#FFFFFF;" d="M2717.047,1170.475c0-430.7-338.938-749.9-761.175-749.9c-81.048,0-129.919,6.7-196.576,54.15
							c-69.107-22.5-153.805-2.1-205.572,30.25c-219.362,137.05-365.721,383.85-365.721,665.5c0,7.168,0.117,14.297,0.305,21.4
							c0.244-0.052,0.486-0.108,0.73-0.158c5.692-275.941,180.207-519.183,390.954-653.978c50.564-32.35,178.314-48.6,245.818-26.1
							c65.111-47.45,64.559-49.544,143.726-49.544c412.438,0,746.777,310.444,746.777,741.144c0,3.731-0.071,7.397-0.105,11.098
							C2716.751,1199.954,2717.047,1185.345,2717.047,1170.475z"/>
					</g>
				</g>
			</g>
		</g>
		<g>
			<g>
				<g>
					<path style="fill:#371A45;" d="M2662.331,1507.321c-1.973,0-3.94-0.466-5.737-1.392
						c-95.649-49.412-72.554-168.687-65.571-196.78c-22.383-33.808-42.725-78.201-66.113-129.233
						c-44.6-97.329-95.151-207.646-179.326-287.263c-119.751-113.313-290.449-22.869-292.163-21.941
						c-3.398,1.846-7.471,2.004-11.006,0.442c-4.668-2.029-116.255-48.691-228.276,68.071
						c-95.2,99.236-220.435,220.024-348.73,278.523c-12.876,79.414-58.589,210.967-218.467,252.961
						c-6.03,1.589-12.354-1.543-14.731-7.339c-37.622-91.626-56.699-190.171-56.699-292.896
						c0-138.049,35.337-273.977,102.197-393.091c64.863-115.562,158.018-213.423,269.395-283.008
						c50.244-31.394,136.494-54.617,210.015-33.389c65.322-45.156,114.824-52.908,198.755-52.908
						c209.175,0,403.662,77.053,547.637,216.97c145.762,141.653,226.035,335.354,226.035,545.425
						c0,122.39-18.687,233.025-55.547,328.838c-1.279,3.315-3.901,5.93-7.222,7.192
						C2665.339,1507.052,2663.835,1507.321,2662.331,1507.321z M2197.937,810.827c53.77,0,113.335,14.954,164.824,63.672
						c87.695,82.949,141.577,200.53,184.868,295.007c24.028,52.432,44.78,97.712,67.227,130.278
						c2.178,3.159,2.783,7.144,1.641,10.808c-1.509,4.895-34.531,115.271,39.351,165.847
						c32.329-89.714,48.706-192.554,48.706-305.964c0-413.498-328.862-737.405-748.682-737.405
						c-82.163,0-126.631,7.205-189.331,51.836c-3.228,2.3-7.349,2.93-11.113,1.702c-67.168-21.87-148.218-0.322-195.083,28.965
						C1335.021,656.347,1200.5,901.171,1200.5,1170.475c0,95.603,17.046,187.415,50.684,273.083
						c141.919-42.627,180.322-165.596,190.537-236.223c0.62-4.268,3.394-7.915,7.339-9.651
						c126.455-55.593,251.89-176.572,347.041-275.759c109.634-114.268,223.926-84.863,250.625-75.791
						C2064.582,837.562,2126.076,810.827,2197.937,810.827z"/>
				</g>
			</g>
		</g>
		<g>
			<g>
				<g>
					<path style="fill:#371A45;" d="M2665.774,1342.231c-6.021-0.24-12.126-0.64-18.372-1.81c-6.25-1.121-12.52-3.225-18.357-5.845
						c-11.716-5.291-22.139-11.807-32.51-18.128c-5.962-3.633-7.849-11.41-4.216-17.371s11.411-7.848,17.371-4.216
						c1.072,0.653,2.012,1.439,2.81,2.325l0.1,0.115c7.869,8.807,15.662,17.617,24.063,24.94c4.219,3.658,8.657,6.84,13.689,9.41
						c5.005,2.606,10.527,4.702,16.157,6.642c1.057,0.361,1.621,1.512,1.26,2.569
						C2667.473,1341.729,2666.643,1342.263,2665.774,1342.231z"/>
				</g>
			</g>
		</g>
		<g>
			<g>
				<g>
					<path style="fill:#371A45;" d="M1293.743,1226.124c26.897,4.863,54.165,2.692,80.269-2.928
						c13.083-2.845,25.935-6.611,38.569-10.942c12.642-4.322,24.998-9.509,37.217-14.866l0.2-0.087
						c6.34-2.78,13.733,0.107,16.514,6.448c2.778,6.34-0.107,13.734-6.448,16.514c-0.535,0.234-1.145,0.445-1.689,0.6
						c-13.528,3.745-27.09,7.257-40.881,9.855c-13.779,2.606-27.676,4.583-41.643,5.57c-13.96,0.989-27.996,0.972-41.86-0.38
						c-13.865-1.301-27.551-4.044-40.608-8.381c-0.381-0.126-0.586-0.537-0.459-0.917
						C1293.037,1226.262,1293.394,1226.061,1293.743,1226.124z"/>
				</g>
			</g>
		</g>
		<g>
			<g>
				<g>
					<path style="fill:#371A45;" d="M2028.911,790.695c-1.709-17.461-6.296-35.198-12.031-52.092
						c-5.789-16.974-12.896-33.488-21.353-49.276c-16.755-31.68-38.506-60.493-63.357-86.103
						c-12.383-12.871-25.85-24.637-39.536-36.069c-7.117-5.4-13.928-11.165-21.321-16.197l-10.903-7.766l-11.226-7.316
						c-30.024-19.351-61.938-35.744-94.9-49.703c-6.355-2.692-9.326-10.026-6.633-16.381c2.69-6.356,10.024-9.326,16.382-6.634
						c0.071,0.03,0.203,0.089,0.273,0.12c33.806,15.259,66.387,33.445,96.86,54.751l11.394,8.03l11.064,8.494
						c7.485,5.511,14.399,11.777,21.584,17.662c13.882,12.382,27.356,25.242,39.634,39.232
						c24.678,27.804,45.918,58.743,61.797,92.295c7.993,16.732,14.666,34.089,19.731,51.904c2.537,8.904,4.719,17.909,6.37,27.028
						c1.66,9.158,2.947,18.201,3.298,27.782c0.071,1.966-1.465,3.619-3.43,3.691c-1.89,0.069-3.491-1.347-3.677-3.203
						L2028.911,790.695z"/>
				</g>
			</g>
		</g>
		<g>
			<g>
				<g>
					<g>
						<path style="fill:#371A45;" d="M1347.176,606.553c-0.195,1.895-8.633,2.71-22.08,3.147
							c-13.389,0.554-32.056,0.295-51.675,2.232c-4.844,0.539-9.536,1.274-13.428,2.439c-1.982,0.549-3.594,1.296-4.756,1.941
							c-0.381,0.32-0.84,0.608-0.854,0.676c-0.176,0.056-0.034,0.044-0.073,0c-0.01,0.024-0.059-0.147-0.093,0.037l-0.093,0.601
							c-0.913,3.367-0.474,5.879,0.537,8.135c1.089,2.234,3.125,4.277,5.547,5.798c4.868,3.074,10.024,4.663,13.457,5.942
							c3.506,1.248,5.532,2.117,5.532,3.076c0,0.938-2.168,1.885-6.167,2.236c-3.994,0.254-9.888,0.256-17.212-2.583
							c-3.604-1.448-7.759-3.999-10.869-8.506c-3.11-4.453-4.351-10.889-3.301-16.277c-0.063-0.959,0.859-4.123,2.002-5.644
							c1.206-1.902,2.588-3.042,4.009-4.212c2.754-1.909,5.522-3.149,8.188-4.033c5.366-1.809,10.669-2.671,16.055-3.289
							c21.45-2.092,40.22-0.19,53.765,1.729C1339.188,602.059,1347.371,604.674,1347.176,606.553z"/>
					</g>
				</g>
			</g>
		</g>
		<g>
			<g>
				<g>
					<g>
						<path style="fill:#371A45;" d="M1336.243,649.517c0.269,3.799-5.835,7.595-13.921,10.657
							c-8.159,2.979-15.874,3.711-17.725,0.403c-1.87-3.303,3.682-9.895,13.013-13.315
							C1326.985,643.711,1336.009,645.701,1336.243,649.517z"/>
					</g>
				</g>
			</g>
		</g>
		<g>
			<g>
				<g>
					<g>
						<path style="fill:#371A45;" d="M1404.236,626.968c-0.869-0.376-1.377-1.694-1.592-3.623c-0.2-1.926,0.005-4.448-0.293-7.454
							c-0.176-5.977-1.509-13.462-5.351-21.299c-8.135-15.676-20.684-26.411-18.491-29.641c0.976-1.616,5.6-0.842,11.733,2.817
							c6.064,3.63,13.779,10.415,19.063,20.696c1.123,2.673,2.407,5.183,2.979,7.925c0.327,1.326,0.649,2.637,0.972,3.94
							c0.122,1.313,0.239,2.615,0.356,3.911c0.322,2.529,0.044,4.954-0.244,7.188c-0.161,2.244-0.757,4.243-1.421,6.018
							c-1.069,3.618-2.842,6.113-4.258,7.693C1406.277,626.722,1405.106,627.344,1404.236,626.968z"/>
					</g>
				</g>
			</g>
		</g>
		<g>
			<g>
				<g>
					<g>
						<path style="fill:#371A45;" d="M1439.09,545.25c-0.854-0.415-1.06-1.943-0.664-4.426c0.2-1.24,0.547-2.717,1.04-4.404
							c0.571-1.638,1.333-3.45,2.222-5.447c3.613-7.922,10.493-17.954,19.873-27.168c18.799-18.469,39.458-26.567,41.245-22.602
							c1.421,2.944-14.184,15.305-31.611,32.41c-8.677,8.533-16.001,16.636-21.352,22.649c-1.314,1.514-2.588,2.854-3.735,4.028
							c-1.064,1.213-2.056,2.239-2.949,3.042C1441.36,544.935,1439.944,545.665,1439.09,545.25z"/>
					</g>
				</g>
			</g>
		</g>
		<g>
			<g>
				<g>
					<path style="fill:#EF4291;" d="M1855.935,3451.425v135c0,0-253.191,128.301-321.498-21.699l59.914-127.002
						C1639.971,3475.478,1734.409,3527.377,1855.935,3451.425z"/>
				</g>
			</g>
		</g>
		<g>
			<g>
				<g>
					<path style="fill:#371A45;" d="M1663.742,3650.041c-22.271,0-44.136-2.856-64.243-9.907
						c-35.103-12.31-60.82-35.938-76.436-70.229c-1.523-3.342-1.499-7.188,0.068-10.51l59.917-127.002
						c1.65-3.491,4.819-6.025,8.584-6.865c3.765-0.83,7.71,0.107,10.688,2.571c42.959,35.552,132.173,84.48,246.992,12.732
						c3.857-2.41,8.706-2.532,12.681-0.334c3.97,2.202,6.436,6.387,6.436,10.93v135c0,4.709-2.646,9.019-6.846,11.147
						C1856.418,3600.189,1756.716,3650.041,1663.742,3650.041z M1548.278,3564.672c12.93,25.396,32.441,42.393,59.492,51.877
						c82.466,28.921,205.498-23.965,235.669-37.993v-105.454c-108.857,58.13-195.488,19.978-244.448-15.925L1548.278,3564.672z"/>
				</g>
			</g>
		</g>
		<g>
			<g>
				<g>
					<g>
						<path style="fill:#FFFFFF;" d="M2969.367,1505.856l-46.382,88.825c-5.247,10.049-6.29,21.772-2.899,32.591l8.315,26.531
							c2.382,7.601,7.685,13.943,14.74,17.632l27.315,14.281c7.056,3.689,15.287,4.422,22.883,2.038l29.894-9.381
							c10.812-3.393,19.833-10.945,25.081-20.994l45.222-86.604L2969.367,1505.856z"/>
					</g>
				</g>
			</g>
			<g>
				<g>
					<g>
						<path style="fill:#371A45;" d="M2984.309,1702.045c-6.831,0-13.604-1.65-19.824-4.902l-27.314-14.282
							c-10.161-5.31-17.642-14.26-21.069-25.2l-8.32-26.533c-4.443-14.185-3.101-29.248,3.779-42.415l46.382-88.823
							c1.582-3.032,4.302-5.31,7.568-6.336c3.257-1.021,6.797-0.705,9.829,0.876l124.17,64.919
							c6.309,3.298,8.75,11.084,5.454,17.393l-45.225,86.604c-6.87,13.171-18.467,22.876-32.642,27.327l-29.893,9.382
							C2992.966,1701.386,2988.625,1702.045,2984.309,1702.045z M2974.826,1523.258l-40.41,77.39
							c-3.696,7.068-4.414,15.154-2.026,22.768l8.315,26.531c1.367,4.368,4.355,7.942,8.408,10.061l27.314,14.282
							c4.058,2.119,8.687,2.537,13.057,1.162l29.888-9.38c7.607-2.388,13.823-7.593,17.51-14.658l39.263-75.186L2974.826,1523.258z"
							/>
					</g>
				</g>
			</g>
			<g>
				<g>
					<g>
						<path style="fill:#FFF031;" d="M3283.309,1459.77c47.475-90.916,12.304-203.127-78.555-250.631s-203-12.312-250.474,78.604
							c-31.81,60.917-26.469,131.372,7.82,185.536c-17.439,37.776,10.265,78.885,57.677,103.673
							c48.556,25.386,99.588,23.62,119.472-14.46c0.753-1.442,1.426-2.911,2.055-4.391
							C3199.82,1550.894,3253.941,1516.011,3283.309,1459.77z"/>
					</g>
				</g>
			</g>
			<g style="opacity:0.3;">
				<g>
					<g>
						<path style="fill:#371A45;" d="M3246.887,1239.346c11.192,43.036,7.071,90.21-15.131,132.728
							c-29.366,56.241-83.49,91.124-142.004,98.33c-0.629,1.48-1.304,2.948-2.057,4.39c-19.884,38.08-70.916,39.847-119.472,14.461
							c-3.338-1.745-6.55-3.589-9.681-5.489c-8.498,34.71,18.179,70.675,61.235,93.185c48.555,25.386,99.588,23.619,119.472-14.461
							c0.753-1.442,1.427-2.911,2.057-4.39c58.514-7.206,112.637-42.09,142.004-98.33
							C3322.536,1384.651,3305.297,1295.03,3246.887,1239.346z"/>
					</g>
				</g>
			</g>
			<g style="opacity:0.6;">
				<g>
					<g>
						<g>
							<path style="fill:#FFFFFF;" d="M2964.591,1318.694c47.473-90.916,159.615-126.108,250.475-78.604
								c39.134,20.461,67.906,52.942,84.223,90.539c-12.058-50.436-44.994-95.589-94.533-121.49
								c-90.861-47.504-203.002-12.312-250.476,78.604c-26.965,51.637-27.146,110.092-5.719,159.704
								C2938.605,1405.493,2943.065,1359.916,2964.591,1318.694z"/>
						</g>
					</g>
				</g>
				<g>
					<g>
						<g>
							<path style="fill:#FFFFFF;" d="M2972.412,1504.23c-4.924-7.777-9.178-15.92-12.884-24.292
								c-5.533,17.217-2.13,34.868,7.819,51.163C2966.801,1522.129,2968.321,1513.089,2972.412,1504.23z"/>
						</g>
					</g>
				</g>
			</g>
			<g>
				<g>
					<g>
						<path style="fill:#371A45;" d="M3081.984,1606.798c-21.348,0-45.186-6.396-68.179-18.42
							c-54.385-28.435-80.112-73.44-66.074-113.904c-34.531-58.85-36.538-132.068-4.883-192.698
							c24.561-47.024,65.942-81.665,116.538-97.544c50.61-15.879,104.346-11.089,151.338,13.481
							c97.012,50.72,134.702,170.955,84.009,268.023c-29.111,55.762-82.896,94.297-144.829,104.167
							c-11.602,21.042-32.28,33.965-58.418,36.453C3088.381,1606.652,3085.212,1606.796,3081.984,1606.798z M3118.996,1200.829
							c-17.373,0-34.834,2.654-51.89,8.005c-44.019,13.816-80.034,43.958-101.401,84.876c-28.442,54.48-25.649,120.644,7.29,172.671
							c2.339,3.696,2.646,8.328,0.811,12.302c-15.332,33.211,15.039,67.549,51.943,86.843
							c22.104,11.558,44.609,16.943,63.291,15.161c18.267-1.738,31.318-9.868,38.784-24.165c0.591-1.133,1.118-2.3,1.621-3.474
							c1.802-4.231,5.718-7.183,10.283-7.744c56.465-6.953,105.864-41.157,132.148-91.501c0,0,0,0,0.005,0
							c44.106-84.473,11.318-189.104-73.101-233.237C3173.732,1207.467,3146.472,1200.829,3118.996,1200.829z"/>
					</g>
				</g>
			</g>
			<g>
				<g>
					<g>
						<path style="fill:#371A45;" d="M2988.239,1566.056c-2.422,0-4.849-0.845-6.807-2.566c-4.277-3.76-4.697-10.276-0.942-14.556
							c12.456-14.177,35.161-44.438,49.561-76.106c-43.926-31.228-42.192-62.39-40.2-72.385
							c3.521-17.659,17.227-30.728,33.33-31.777c16.499-1.089,30.181,10.085,36.88,29.829c6.914,20.374,3.56,43.682-4.414,66.208
							c3.745,2.156,7.759,4.297,12.046,6.416c5.107,2.522,7.202,8.708,4.683,13.816c-2.52,5.107-8.716,7.2-13.813,4.68
							c-3.813-1.882-7.427-3.782-10.84-5.688c-19.385,41.472-49.634,76.235-51.738,78.628
							C2993.947,1564.872,2991.101,1566.056,2988.239,1566.056z M3025.212,1389.228c-0.229,0-0.459,0.007-0.688,0.022
							c-5.742,0.376-12.549,5.725-14.443,15.227c-2.5,12.549,4.321,30.408,27.744,48.435c5.508-17.209,7.407-33.926,2.705-47.788
							C3037.082,1394.972,3031.525,1389.228,3025.212,1389.228z"/>
					</g>
				</g>
			</g>
			<g>
				<g>
					<g>
						<path style="fill:#371A45;" d="M3044.06,1595.241c-0.82,0-1.646-0.098-2.476-0.303c-5.532-1.362-8.911-6.946-7.549-12.476
							c0.762-3.096,12.007-47.8,34.966-87.41c-3.516-1.716-7.139-3.599-10.864-5.657c-4.985-2.756-6.792-9.031-4.038-14.016
							c2.754-4.985,9.028-6.799,14.019-4.04c4.18,2.312,8.228,4.382,12.129,6.228c13.931-19.417,31.133-35.479,51.797-41.433
							c20.039-5.784,37.056-0.815,45.537,13.254c8.34,13.838,5.435,32.566-7.061,45.544c-7.065,7.334-31.626,26.541-82.324,8.293
							c-17.754,29.915-29.609,65.84-34.131,84.165C3052.902,1592.094,3048.693,1595.241,3044.06,1595.241z M3100.095,1485.47
							c28.149,8.948,46.699,4.355,55.566-4.846c6.729-6.987,7.231-15.645,4.253-20.586c-3.418-5.674-11.484-7.148-22.158-4.084
							C3123.698,1460.006,3111.066,1471.115,3100.095,1485.47z"/>
					</g>
				</g>
			</g>
			<g>
				<g>
					<g>
						<path style="fill:#371A45;" d="M3047.077,1669.87c-0.313,0-0.63-0.015-0.952-0.044
							c-83.745-7.683-129.434-66.392-131.338-68.887c-3.457-4.529-2.588-11.001,1.943-14.458c4.517-3.452,10.981-2.581,14.443,1.929
							c0.493,0.637,42.451,54.05,116.836,60.874c5.674,0.52,9.849,5.542,9.326,11.213
							C3056.848,1665.849,3052.351,1669.87,3047.077,1669.87z"/>
					</g>
				</g>
			</g>
			<g>
				<g>
					<g>
						<path style="fill:#371A45;" d="M3064.245,1636.996c-0.313,0-0.63-0.015-0.952-0.044
							c-83.755-7.686-129.438-66.394-131.338-68.892c-3.457-4.529-2.588-11.001,1.943-14.456c4.521-3.462,10.986-2.583,14.443,1.931
							c0.503,0.647,42.456,54.048,116.836,60.874c5.674,0.52,9.849,5.542,9.326,11.213
							C3074.016,1632.975,3069.519,1636.996,3064.245,1636.996z"/>
					</g>
				</g>
			</g>
			<g>
				<g>
					<g>
						<g>
							<g>
								<path style="fill:#FFFFFF;" d="M2832.425,1561.805c-1.626-3.56,16.235-15.227,39.902-26.057s44.17-16.724,45.801-13.162
									s-16.236,15.227-39.897,26.057C2854.564,1559.473,2834.056,1565.367,2832.425,1561.805z"/>
							</g>
						</g>
					</g>
				</g>
				<g>
					<g>
						<g>
							<g>
								<path style="fill:#FFFFFF;" d="M2695.809,1467.327c-0.723-3.848,26.392-12.173,60.557-18.591
									c34.165-6.421,62.451-8.506,63.174-4.656c0.723,3.848-26.387,12.173-60.557,18.594
									C2724.818,1469.092,2696.531,1471.177,2695.809,1467.327z"/>
							</g>
						</g>
					</g>
				</g>
				<g>
					<g>
						<g>
							<g>
								<path style="fill:#FFFFFF;" d="M2747.366,1378.912c-0.674-3.857,9.746-8.889,23.271-11.238s25.034-1.125,25.703,2.734
									c0.669,3.857-9.751,8.889-23.276,11.238S2748.035,1382.772,2747.366,1378.912z"/>
							</g>
						</g>
					</g>
				</g>
				<g>
					<g>
						<g>
							<g>
								<path style="fill:#FFFFFF;" d="M2695.809,1305.926c0.566-3.875,28.725-2.976,62.891,2.012
									c34.165,4.985,61.406,12.168,60.84,16.042s-28.721,2.976-62.891-2.009C2722.484,1316.983,2695.247,1309.8,2695.809,1305.926
									z"/>
							</g>
						</g>
					</g>
				</g>
				<g>
					<g>
						<g>
							<g>
								<path style="fill:#FFFFFF;" d="M2796.341,1211.78c1.753-3.501,17.021,0.588,34.102,9.136
									c17.085,8.547,29.512,18.315,27.764,21.816c-1.753,3.503-17.021-0.586-34.106-9.133S2794.588,1215.284,2796.341,1211.78z"/>
							</g>
						</g>
					</g>
				</g>
				<g>
					<g>
						<g>
							<g>
								<path style="fill:#FFFFFF;" d="M2796.341,1072.501c2.891-2.642,22.905,14.561,44.702,38.42s37.124,45.344,34.233,47.986
									s-22.905-14.561-44.702-38.42S2793.45,1075.142,2796.341,1072.501z"/>
							</g>
						</g>
					</g>
				</g>
				<g>
					<g>
						<g>
							<g>
								<path style="fill:#FFFFFF;" d="M2933.157,1072.501c3.711-1.252,11.001,10.437,16.284,26.106s6.558,29.387,2.847,30.637
									c-3.711,1.252-11.001-10.437-16.284-26.106S2929.447,1073.751,2933.157,1072.501z"/>
							</g>
						</g>
					</g>
				</g>
				<g>
					<g>
						<g>
							<g>
								<path style="fill:#FFFFFF;" d="M3038.641,957.723c3.857-0.691,12.461,29.351,19.224,67.1
									c6.758,37.749,9.116,68.911,5.259,69.602c-3.853,0.691-12.461-29.353-19.219-67.102
									C3037.142,989.573,3034.788,958.411,3038.641,957.723z"/>
							</g>
						</g>
					</g>
				</g>
				<g>
					<g>
						<g>
							<g>
								<path style="fill:#FFFFFF;" d="M3171.981,1036.39c3.848,0.728,4.238,15.752,0.874,33.557
									c-3.364,17.808-9.214,31.653-13.062,30.925s-4.238-15.752-0.874-33.557
									C3162.283,1049.507,3168.133,1035.662,3171.981,1036.39z"/>
							</g>
						</g>
					</g>
				</g>
				<g>
					<g>
						<g>
							<g>
								<path style="fill:#FFFFFF;" d="M3298.988,975.777c3.569,1.611-7.1,32.942-23.828,69.98
									c-16.723,37.036-33.178,65.754-36.748,64.143c-3.569-1.614,7.1-32.944,23.828-69.98
									C3278.963,1002.884,3295.418,974.166,3298.988,975.777z"/>
							</g>
						</g>
					</g>
				</g>
				<g>
					<g>
						<g>
							<g>
								<path style="fill:#FFFFFF;" d="M3345.384,1129.244c3.101,2.393-2.173,14.434-11.782,26.899
									c-9.609,12.463-19.912,20.63-23.013,18.24c-3.105-2.393,2.173-14.436,11.782-26.899S3342.283,1126.854,3345.384,1129.244z"
									/>
							</g>
						</g>
					</g>
				</g>
				<g>
					<g>
						<g>
							<g>
								<path style="fill:#FFFFFF;" d="M3506.492,1174.383c2.021,3.352-21.733,21.372-53.052,40.247s-58.345,31.458-60.366,28.103
									s21.729-21.375,53.047-40.249S3504.471,1171.028,3506.492,1174.383z"/>
							</g>
						</g>
					</g>
				</g>
				<g>
					<g>
						<g>
							<g>
								<path style="fill:#FFFFFF;" d="M3466.536,1323.98c1.426,3.647-10.688,11.799-27.056,18.21
									c-16.372,6.409-30.801,8.65-32.231,5.005c-1.426-3.647,10.688-11.799,27.061-18.21
									C3450.677,1322.574,3465.111,1320.335,3466.536,1323.98z"/>
							</g>
						</g>
					</g>
				</g>
				<g>
					<g>
						<g>
							<g>
								<path style="fill:#FFFFFF;" d="M3577.376,1433.602c-0.332,3.901-34.644,4.177-76.641,0.615
									c-41.997-3.56-75.771-9.612-75.444-13.513c0.332-3.901,34.648-4.177,76.641-0.618
									C3543.929,1423.648,3577.708,1429.698,3577.376,1433.602z"/>
							</g>
						</g>
					</g>
				</g>
				<g>
					<g>
						<g>
							<g>
								<path style="fill:#FFFFFF;" d="M3461.38,1522.586c-1.465,3.63-19.102-0.066-39.385-8.257
									c-20.288-8.191-35.542-17.773-34.077-21.406c1.465-3.63,19.102,0.066,39.385,8.257
									C3447.591,1509.371,3462.845,1518.956,3461.38,1522.586z"/>
							</g>
						</g>
					</g>
				</g>
				<g>
					<g>
						<g>
							<g>
								<path style="fill:#FFFFFF;" d="M3440.76,1659.556c-2.651,2.883-25.283-13.606-50.552-36.826
									c-25.269-23.223-43.608-44.385-40.957-47.268s25.283,13.604,50.552,36.826
									C3425.072,1635.508,3443.411,1656.673,3440.76,1659.556z"/>
							</g>
						</g>
					</g>
				</g>
				<g>
					<g>
						<g>
							<g>
								<path style="fill:#FFFFFF;" d="M3349.251,1652.84c-3.164,2.307-11.499-3.73-18.618-13.486
									c-7.114-9.756-10.322-19.536-7.158-21.846c3.164-2.307,11.499,3.73,18.618,13.486
									C3349.212,1640.753,3352.415,1650.533,3349.251,1652.84z"/>
							</g>
						</g>
					</g>
				</g>
				<g>
					<g>
						<g>
							<g>
								<path style="fill:#FFFFFF;" d="M3311.873,1741.827c-3.384,1.963-17.676-16.367-31.909-40.94
									c-14.238-24.573-23.032-46.084-19.644-48.047s17.676,16.365,31.914,40.938
									C3306.468,1718.35,3315.262,1739.861,3311.873,1741.827z"/>
							</g>
						</g>
					</g>
				</g>
				<g>
					<g>
						<g>
							<g>
								<path style="fill:#FFFFFF;" d="M3153.348,1689.131c-3.799,0.94-10.347-12.275-14.614-29.521
									c-4.272-17.244-4.654-31.987-0.85-32.93c3.799-0.942,10.342,12.275,14.614,29.521
									C3156.771,1673.445,3157.152,1688.189,3153.348,1689.131z"/>
							</g>
						</g>
					</g>
				</g>
			</g>
		</g>
		<g>
			<g>
				<g>
					<path style="fill:#FFC891;" d="M1853.755,1890.787v1.971c0,11.054-3.602,21.82-10.183,30.712l-55.476,74.448
						c2.402,92.519-43.229,112.945-43.229,112.945l-60.04,138.177c-141.693-30.039-165.709-167.015-165.709-167.015l80.453-55.367
						l26.417-185.566c20.07-35.902,52.785-56.907,73.593-67.332c11.323-5.673,24.879-4.492,35.236,2.798l10.769,7.58l8.07-8.651
						c4.372-4.71,10.375-7.161,16.426-7.161c3.506,0,7.059,0.817,10.326,2.499c11.288,5.863,16.476,19.128,12.2,31.096l-1.008,2.74
						v0.048c1.25-0.24,2.498-0.385,3.795-0.385c2.979,0,6.004,0.625,8.886,1.923c9.991,4.47,15.08,15.668,11.912,26.146
						l-26.514,88.241l47.07-37.969C1843.572,1877.137,1853.755,1881.992,1853.755,1890.787z"/>
				</g>
			</g>
		</g>
		<g style="opacity:0.3;">
			<g>
				<g>
					<g>
						<path style="fill:#390176;" d="M1836.752,1882.664l-43.84,35.363c-0.168,0.234-0.315,0.481-0.486,0.713l-55.475,74.448
							c2.401,92.519-43.227,112.945-43.227,112.945l-55.461,127.639c13.907,6.368,29.352,11.618,46.565,15.268l60.041-138.177
							c0,0,45.628-20.426,43.227-112.945l55.476-74.448c6.58-8.892,10.184-19.657,10.184-30.711v-1.971
							C1853.756,1881.992,1843.572,1877.137,1836.752,1882.664z"/>
					</g>
				</g>
			</g>
		</g>
		<g>
			<g>
				<g>
					<path style="fill:#371A45;" d="M1755.244,1792.07l-79.736,81.234c-0.95,0.966-2.5,0.98-3.467,0.032
						c-0.859-0.845-0.964-2.169-0.308-3.131l64.199-93.998c3.906-5.721,11.714-7.192,17.434-3.284
						c5.723,3.907,7.192,11.713,3.284,17.435C1756.24,1790.959,1755.735,1791.563,1755.244,1792.07z"/>
				</g>
			</g>
		</g>
		<g>
			<g>
				<g>
					<path style="fill:#371A45;" d="M1684.831,2261.537c-0.859,0-1.729-0.09-2.598-0.273
						c-148.232-31.426-175.171-175.627-175.425-177.08c-0.845-4.814,1.196-9.68,5.225-12.451l75.942-52.263l25.64-180.139
						c0.22-1.523,0.713-2.996,1.465-4.338c21.104-37.742,54.556-60.205,78.906-72.405c15.371-7.708,33.774-6.279,48.022,3.753
						l1.87,1.313l0.645-0.691c6.558-7.065,15.879-11.13,25.562-11.13c5.566,0,11.113,1.343,16.05,3.882
						c12.915,6.714,20.527,20.093,20.435,34.004c0.962,0.335,1.914,0.715,2.852,1.138c15.645,7,23.711,24.7,18.735,41.155
						l-14.888,49.541l15.635-12.612c6.919-5.601,16.245-6.704,24.282-2.864c8.062,3.843,13.066,11.78,13.066,20.713v1.97
						c0,13.589-4.487,27.136-12.637,38.145l-52.944,71.057c0.84,79.697-33.154,109.314-45.967,117.63l-58.418,134.431
						C1694.274,2258.654,1689.724,2261.537,1684.831,2261.537z M1533.151,2087.538c7.031,27.502,38.13,119.414,144.375,146.948
						l55.884-128.606c1.24-2.859,3.511-5.151,6.353-6.426c1.377-0.676,37.964-19.502,35.845-101.214
						c-0.073-2.8,0.796-5.544,2.471-7.791l55.474-74.448c4.487-6.062,7.158-13.396,7.632-20.859l-43.657,35.217
						c-4.263,3.44-10.278,3.699-14.819,0.644c-4.546-3.059-6.572-8.721-4.995-13.967l26.514-88.242
						c1.353-4.47-0.82-9.25-5.044-11.142c-1.24-0.559-2.5-0.835-3.784-0.835c-0.405,0-0.864,0.054-1.445,0.164
						c-3.667,0.696-7.441-0.269-10.313-2.642c-2.871-2.375-4.531-5.906-4.531-9.631c0-1.47,0.259-2.976,0.767-4.355l1.006-2.739
						c2.124-5.95-0.537-12.744-6.23-15.701c-3.721-1.914-8.877-1.108-11.831,2.075l-8.096,8.674
						c-4.258,4.561-11.235,5.286-16.328,1.694l-10.771-7.581c-6.704-4.719-15.303-5.417-22.446-1.846
						c-20.776,10.41-49.082,29.26-67.153,60.281l-26.079,183.205c-0.493,3.459-2.412,6.553-5.288,8.533L1533.151,2087.538z"/>
				</g>
			</g>
		</g>
		<g>
			<g>
				<g>
					<path style="fill:#371A45;" d="M1726.924,1897.485l23.977-52.462l11.985-26.226l2.996-6.556
						c0.693-1.714,2.646-5.648,4.941-8.35c4.634-5.731,11.296-9.866,18.694-11.505l1.765-0.391c6.831-1.512,13.596,2.8,15.107,9.631
						c1.514,6.831-2.8,13.594-9.629,15.107c-1.011,0.223-2.083,0.315-3.071,0.295c-2.061-0.054-4.28,0.646-6.064,2.046
						c-1.255,0.494-4.38,5.895-7,9.592l-16.089,23.956l-32.178,47.902c-0.962,1.432-2.903,1.813-4.333,0.851
						C1726.736,1900.511,1726.299,1898.853,1726.924,1897.485z"/>
				</g>
			</g>
		</g>
		<g style="opacity:0.3;">
			<g>
				<g>
					<path style="fill:#371A45;" d="M1844.238,3144.32l-31.723,111.356l-45.275,159.048v67.405
						c0,69.018-47.159,129.348-114.275,145.264c-9.977,2.366-20.24,4.45-30.627,6.102c99.359,20.93,233.597-47.066,233.597-47.066
						v-171.704l45.274-159.048l30.562-107.283C1900.048,3147.744,1870.925,3146.341,1844.238,3144.32z"/>
				</g>
			</g>
		</g>
		<g>
			<g>
				<g>
					<path style="fill:#371A45;" d="M1729.356,1288.397c5.486-7.943,11.8-15.228,18.622-21.211
						c-20.367-9.87-33.697-24.988-33.697-24.988S1710.271,1271.024,1729.356,1288.397z"/>
				</g>
			</g>
		</g>
		<g>
			<g>
				<g>
					<g>
						<g>
							<path style="fill:#371A45;" d="M1810.504,1243.306c52.702,6.324,87.605,73.454,77.958,149.938
								c-9.646,76.485-60.19,133.361-112.893,127.037c-52.701-6.324-87.606-73.453-77.959-149.938
								C1707.257,1293.858,1757.802,1236.981,1810.504,1243.306z"/>
						</g>
					</g>
				</g>
			</g>
		</g>
		<g>
			<g>
				<g>
					<g>
						<g>
							<path style="fill:#FFFFFF;" d="M1807.083,1275.483c14.878,10.548,16.226,37.622,3.01,60.471
								c-13.216,22.849-35.99,32.82-50.869,22.271c-14.878-10.547-16.226-37.622-3.01-60.469
								C1769.431,1274.907,1792.204,1264.934,1807.083,1275.483z"/>
						</g>
					</g>
				</g>
			</g>
		</g>
		<g>
			<g>
				<g>
					<g>
						<g>
							<path style="fill:#B199C5;" d="M1826.201,1448.87c6.481,7.503,4.272,21.767-4.932,31.857
								c-9.204,10.092-21.919,12.19-28.398,4.686c-6.481-7.502-4.272-21.766,4.932-31.856
								C1807.006,1443.466,1819.722,1441.369,1826.201,1448.87z"/>
						</g>
					</g>
				</g>
			</g>
		</g>
		<g>
			<g>
				<g>
					<g>
						<path style="fill:#371A45;" d="M2172.816,1315.618c4.618-7.719,10.046-14.878,16.025-20.856
							c-19.538-7.937-32.851-21.182-32.851-21.182S2154.014,1300.626,2172.816,1315.618z"/>
					</g>
				</g>
			</g>
			<g>
				<g>
					<g>
						<g>
							<g>
								
									<ellipse transform="matrix(0.0656 -0.9978 0.9978 0.0656 695.2662 3539.6628)" style="fill:#371A45;" cx="2237.705" cy="1398.581" rx="130.067" ry="89.551"/>
							</g>
						</g>
					</g>
				</g>
			</g>
			<g>
				<g>
					<g>
						<g>
							<g>
								<path style="fill:#FFFFFF;" d="M2244.301,1298.878c14.475,8.902,17.375,33.993,6.476,56.042
									c-10.899,22.05-31.468,32.707-45.943,23.805c-14.475-8.901-17.375-33.993-6.475-56.041
									C2209.257,1300.635,2229.826,1289.976,2244.301,1298.878z"/>
							</g>
						</g>
					</g>
				</g>
			</g>
			<g>
				<g>
					<g>
						<g>
							<g>
								<path style="fill:#B199C5;" d="M2272.62,1458.93c6.482,6.582,5.296,19.979-2.648,29.921
									c-7.944,9.944-19.639,12.668-26.12,6.086c-6.482-6.581-5.296-19.978,2.649-29.92
									C2254.444,1455.074,2266.14,1452.35,2272.62,1458.93z"/>
							</g>
						</g>
					</g>
				</g>
			</g>
		</g>
	</g>
</g>
</svg>
